<svg xmlns="http://www.w3.org/2000/svg" width="900" height="430" viewBox="0 0 900 430" font-family="Microsoft YaHei,SimHei,sans-serif">
<rect width="900" height="430" rx="12" fill="#0f172a"/>
<text x="450" y="42" text-anchor="middle" font-size="20" font-weight="bold" fill="#f8fafc">跨境电商多语言智能客服与运营Agent</text>
<text x="450" y="66" text-anchor="middle" font-size="12" fill="#94a3b8">2026年秋季学期《软件工程项目实训》项目 48 · 总体架构示意（4周交付）</text>
<g><defs><marker id="a" markerWidth="8" markerHeight="8" refX="4" refY="4" orient="auto"><path d="M0,0 L8,4 L0,8 z" fill="#475569"/></marker></defs><rect x="40" y="110" width="180" height="86" rx="10" fill="#2563eb" opacity="0.92"/><text x="130" y="145" text-anchor="middle" font-size="14" font-weight="bold" fill="#ffffff">交互层</text><text x="130" y="170" text-anchor="middle" font-size="11" fill="#e2e8f0">Web/CLI/移动端界面</text><rect x="255" y="110" width="180" height="86" rx="10" fill="#7c3aed" opacity="0.92"/><text x="345" y="145" text-anchor="middle" font-size="14" font-weight="bold" fill="#ffffff">编排层</text><text x="345" y="170" text-anchor="middle" font-size="11" fill="#e2e8f0">Agent/工作流/业务核心</text><rect x="470" y="110" width="180" height="86" rx="10" fill="#0891b2" opacity="0.92"/><text x="560" y="145" text-anchor="middle" font-size="14" font-weight="bold" fill="#ffffff">能力层</text><text x="560" y="170" text-anchor="middle" font-size="11" fill="#e2e8f0">模型·算法·工具库</text><rect x="685" y="110" width="180" height="86" rx="10" fill="#059669" opacity="0.92"/><text x="775" y="145" text-anchor="middle" font-size="14" font-weight="bold" fill="#ffffff">数据层</text><text x="775" y="170" text-anchor="middle" font-size="11" fill="#e2e8f0">存储·索引·实验追踪</text><rect x="145" y="250" width="180" height="86" rx="10" fill="#334155" opacity="0.92"/><text x="235" y="285" text-anchor="middle" font-size="14" font-weight="bold" fill="#ffffff">交付</text><text x="235" y="310" text-anchor="middle" font-size="11" fill="#e2e8f0">可运行系统v1.0</text><rect x="360" y="250" width="180" height="86" rx="10" fill="#334155" opacity="0.92"/><text x="450" y="285" text-anchor="middle" font-size="14" font-weight="bold" fill="#ffffff">文档</text><text x="450" y="310" text-anchor="middle" font-size="11" fill="#e2e8f0">需求/设计/测试/部署</text><rect x="575" y="250" width="180" height="86" rx="10" fill="#334155" opacity="0.92"/><text x="665" y="285" text-anchor="middle" font-size="14" font-weight="bold" fill="#ffffff">验证</text><text x="665" y="310" text-anchor="middle" font-size="11" fill="#e2e8f0">性能指标实测达标</text><line x1="130" y1="196" x2="130" y2="248" stroke="#475569" stroke-width="2" marker-end="url(#a)"/><line x1="345" y1="196" x2="345" y2="248" stroke="#475569" stroke-width="2" marker-end="url(#a)"/><line x1="560" y1="196" x2="560" y2="248" stroke="#475569" stroke-width="2" marker-end="url(#a)"/><line x1="775" y1="196" x2="775" y2="248" stroke="#475569" stroke-width="2" marker-end="url(#a)"/></g>
<text x="450" y="412" text-anchor="middle" font-size="11" fill="#64748b">交付物：可运行系统 + 完整文档（需求/设计/测试/部署）</text>
</svg>